<svg width="106" height="45" viewBox="0 0 106 45" fill="none" xmlns="http://www.w3.org/2000/svg">
<path d="M36.016 40.462L2.49997 26.839V23.248L36.016 9.05501V13.273L8.37097 25.015L36.016 36.244V40.462ZM65.3692 2.50001L44.9632 40.462H40.5742L60.9802 2.50001H65.3692ZM97.5542 25.015L69.9092 13.273V9.05501L103.425 23.248V26.839L69.9092 40.462V36.244L97.5542 25.015Z" fill="black"/>
<path d="M36.016 40.462L35.0746 42.778L38.516 44.1768V40.462H36.016ZM2.49997 26.839H-2.91318e-05V28.5215L1.55861 29.155L2.49997 26.839ZM2.49997 23.248L1.5251 20.9459L-2.91318e-05 21.5918V23.248H2.49997ZM36.016 9.05501H38.516V5.28141L35.0411 6.75291L36.016 9.05501ZM36.016 13.273L36.9933 15.574L38.516 14.9273V13.273H36.016ZM8.37097 25.015L7.39362 22.714L1.85473 25.0666L7.43016 27.3312L8.37097 25.015ZM36.016 36.244H38.516V34.5611L36.9568 33.9278L36.016 36.244ZM36.016 40.462L36.9573 38.146L3.44134 24.523L2.49997 26.839L1.55861 29.155L35.0746 42.778L36.016 40.462ZM2.49997 26.839H4.99997V23.248H2.49997H-2.91318e-05V26.839H2.49997ZM2.49997 23.248L3.47484 25.5501L36.9908 11.3571L36.016 9.05501L35.0411 6.75291L1.5251 20.9459L2.49997 23.248ZM36.016 9.05501H33.516V13.273H36.016H38.516V9.05501H36.016ZM36.016 13.273L35.0386 10.972L7.39362 22.714L8.37097 25.015L9.34832 27.316L36.9933 15.574L36.016 13.273ZM8.37097 25.015L7.43016 27.3312L35.0752 38.5602L36.016 36.244L36.9568 33.9278L9.31179 22.6988L8.37097 25.015ZM36.016 36.244H33.516V40.462H36.016H38.516V36.244H36.016ZM65.3692 2.5L67.5712 3.68368L69.5513 3.8147e-06H65.3692V2.5ZM44.9632 40.462V42.962H46.4576L47.1652 41.6457L44.9632 40.462ZM40.5742 40.462L38.3722 39.2783L36.3921 42.962H40.5742V40.462ZM60.9802 2.5V3.8147e-06H59.4857L58.7782 1.31633L60.9802 2.5ZM65.3692 2.5L63.1672 1.31633L42.7612 39.2783L44.9632 40.462L47.1652 41.6457L67.5712 3.68368L65.3692 2.5ZM44.9632 40.462V37.962H40.5742V40.462V42.962H44.9632V40.462ZM40.5742 40.462L42.7762 41.6457L63.1822 3.68368L60.9802 2.5L58.7782 1.31633L38.3722 39.2783L40.5742 40.462ZM60.9802 2.5V5H65.3692V2.5V3.8147e-06H60.9802V2.5ZM97.5542 25.015L98.495 27.3312L104.07 25.0666L98.5315 22.714L97.5542 25.015ZM69.9091 13.273H67.4091V14.9273L68.9318 15.574L69.9091 13.273ZM69.9091 9.05501L70.884 6.75291L67.4091 5.28141V9.05501H69.9091ZM103.425 23.248H105.925V21.5918L104.4 20.9459L103.425 23.248ZM103.425 26.839L104.367 29.155L105.925 28.5215V26.839H103.425ZM69.9091 40.462H67.4091V44.1768L70.8505 42.778L69.9091 40.462ZM69.9091 36.244L68.9683 33.9278L67.4091 34.5611V36.244H69.9091ZM97.5542 25.015L98.5315 22.714L70.8865 10.972L69.9091 13.273L68.9318 15.574L96.5768 27.316L97.5542 25.015ZM69.9091 13.273H72.4091V9.05501H69.9091H67.4091V13.273H69.9091ZM69.9091 9.05501L68.9343 11.3571L102.45 25.5501L103.425 23.248L104.4 20.9459L70.884 6.75291L69.9091 9.05501ZM103.425 23.248H100.925V26.839H103.425H105.925V23.248H103.425ZM103.425 26.839L102.484 24.523L68.9678 38.146L69.9091 40.462L70.8505 42.778L104.367 29.155L103.425 26.839ZM69.9091 40.462H72.4091V36.244H69.9091H67.4091V40.462H69.9091ZM69.9091 36.244L70.85 38.5602L98.495 27.3312L97.5542 25.015L96.6133 22.6988L68.9683 33.9278L69.9091 36.244Z" fill="#F29502"/>
</svg>
